Coordinates
nRows=5
nColumns=24

# SIMM Motion File Header:
name Coordinates
datacolumns 24
datarows 5
otherdata 1
range 0.50566999999999995000 0.50966999999999996000
endheader
time	pelvis_tx	pelvis_ty	pelvis_tz	pelvis_tilt	pelvis_list	pelvis_rotation	hip_flexion_r	hip_adduction_r	hip_rotation_r	knee_angle_r	ankle_angle_r	subtalar_angle_r	mtp_angle_r	hip_flexion_l	hip_adduction_l	hip_rotation_l	knee_angle_l	ankle_angle_l	subtalar_angle_l	mtp_angle_l	lumbar_extension	lumbar_bending	lumbar_rotation
      0.50566999999999995000	      1.17116969934415520000	      0.64884595044211668000	     -0.28900787112302878000	      4.73999161824371300000	      4.42357255923421720000	     -4.60942293320731530000	    -20.87260563389396100000	     -9.24877356346467750000	    -10.34503359917129100000	    -38.31295123904681800000	    -18.33758753573908300000	      0.00000000000008507530	      0.00000000000001684666	     26.35076994980300200000	      1.25650321747169190000	     -8.45161319132950690000	    -29.55260580737466100000	     -1.93181835316939040000	      0.00000000000000089493	     -0.00000000000023443999	    -23.79041410101814300000	    -12.26223968214194000000	      2.83691698517446560000
      0.50666999999999995000	      1.17270627879088710000	      0.64911928477840231000	     -0.28906400711671637000	      4.75237127040821420000	      4.48134352849426150000	     -4.61849233058074390000	    -20.64223229713374200000	     -9.34314831724510420000	    -10.44392097786827900000	    -38.73260879487196500000	    -18.49272905538256500000	      0.00000000000008582782	      0.00000000000001746429	     26.21747819403210800000	      1.32383388111644560000	     -8.50832832958514550000	    -29.60503433695383200000	     -1.72623641623749610000	      0.00000000000000052910	     -0.00000000000023488289	    -23.80952855488717300000	    -12.35809563294476200000	      2.78653910079357960000
      0.50766999999999995000	      1.17423879031763390000	      0.64939717206988268000	     -0.28911741104264504000	      4.76309225593781790000	      4.53801386850237340000	     -4.62841646635933750000	    -20.40769134558222900000	     -9.43694233519572380000	    -10.54572600502014100000	    -39.15062897982225100000	    -18.62609345924406800000	      0.00000000000008656474	      0.00000000000001814140	     26.08197567268050700000	      1.39002741736637780000	     -8.56064528702603590000	    -29.64977952533110500000	     -1.52219439602876610000	      0.00000000000000014777	     -0.00000000000023533055	    -23.82630698454081400000	    -12.45258427069065900000	      2.73556788949328980000
      0.50866999999999996000	      1.17576723392439520000	      0.64967961231655769000	     -0.28916808290081492000	      4.77215457483252510000	      4.59358357925855460000	     -4.63919534054309680000	    -20.16898277923943200000	     -9.53015561731653630000	    -10.65044868062687800000	    -39.56701179389769200000	    -18.73768074732360500000	      0.00000000000008728606	      0.00000000000001887800	     25.94426238574820000000	      1.45508382622148940000	     -8.60856406365218340000	    -29.68684137250648500000	     -1.31969229254319950000	     -0.00000000000000024906	     -0.00000000000023578296	    -23.84074938997907000000	    -12.54570559537963300000	      2.68400335127359700000
      0.50966999999999996000	      1.17729567753115650000	      0.64996205256323270000	     -0.28921875475898479000	      4.78121689372723150000	      4.64915329001473500000	     -4.64997421472685610000	    -19.93027421289663100000	     -9.62336889943735050000	    -10.75517135623361800000	    -39.98339460797312500000	    -18.84926803540313500000	      0.00000000000008800738	      0.00000000000001961460	     25.80654909881589300000	      1.52014023507660020000	     -8.65648284027832560000	    -29.72390321968186200000	     -1.11719018905763570000	     -0.00000000000000064589	     -0.00000000000023623537	    -23.85519179541732300000	    -12.63882692006860600000	      2.63243881305390340000
